<svg viewBox="0 0 173 55" xmlns="http://www.w3.org/2000/svg" fill-rule="evenodd" clip-rule="evenodd" stroke-linejoin="round" stroke-miterlimit="2"><path d="M47.585 30.271v24.216h22.524v-6.914h-7.006v3.46h-6.842V33.662h7.053v3.453h6.588v-6.844H47.585zm53.847 0v3.391h1.604v17.371h-1.576v3.454h11.923v-3.454h-1.874l.029-17.371h1.666l-.045-3.391h-11.727zm-26.052 0v3.391h1.716v17.371h-1.595v3.454h22.241v-5.128l-6.594-.089v1.763h-5.324V33.662h1.561v-3.391H75.38zm44.985 0v3.391h1.861v17.371h-1.861v3.404h12.069v-3.404h-1.851v-5.267h7.163v-3.315h-7.163v-8.789h7.388v3.453h6.466v-6.844h-24.072zm27.998 0v3.391h1.86v17.371h-1.86v3.404h12.068v-3.404h-1.851v-5.267h7.163v-3.315h-7.163v-8.789h7.388v3.453h6.466v-6.844h-24.071z"/><path d="M33.763 11.255v43.232H10.888V47.39h15.778V11.255h7.097zM23.438.7H.663v43.288h22.775V.7zM4.153 40.574V4.145h15.515v7.11l-8.669-.08v29.32l-6.846.079z" fill="#ed1c24"/></svg>