<svg width="8" height="13" fill="none" xmlns="http://www.w3.org/2000/svg"><path d="M3.44 7.187h-.71a.208.208 0 100 .416h.71a.208.208 0 100-.416z" fill="#8D8D8D"/><path d="M7.685 1.54H4.617v-.397a.208.208 0 00-.262-.2L.198 2.05a.208.208 0 00-.155.201v.672a.208.208 0 10.416 0v-.512l3.742-.998V12.53l-3.742-.748V3.625a.208.208 0 10-.416 0v8.328c0 .1.07.185.168.204l4.157.832a.208.208 0 00.249-.204v-.396h1.917a.208.208 0 100-.416H4.617v-.594h2.059a.208.208 0 00.208-.208V2.757a.208.208 0 00-.208-.208h-2.06v-.594h2.861v10.018h-.296a.208.208 0 000 .416h.504a.208.208 0 00.208-.208V1.747a.208.208 0 00-.208-.208zM6.468 2.964v7.998H4.617V2.965h1.85z" fill="#8D8D8D"/></svg>