<svg width="9" height="15" fill="none" xmlns="http://www.w3.org/2000/svg"><path d="M5.53 14.998H3.202a.705.705 0 01-.705-.703v-5.24H1.14a.705.705 0 01-.705-.704V6.106c0-.388.317-.703.705-.703h1.358V4.278c0-1.115.351-2.063 1.015-2.742C4.178.853 5.109.492 6.205.492L7.98.495a.706.706 0 01.704.704v2.085a.705.705 0 01-.705.703H6.784c-.365 0-.458.074-.477.096-.033.037-.072.142-.072.431v.888h1.654a.706.706 0 01.712.704L8.6 8.351a.705.705 0 01-.705.704h-1.66v5.24a.705.705 0 01-.705.703zm-2.18-.85h2.033V8.674a.47.47 0 01.47-.47h1.895v-1.95H5.854a.47.47 0 01-.47-.47v-1.27c0-.332.034-.71.285-.994.304-.343.782-.383 1.116-.383h1.048V1.345l-1.628-.002c-1.76 0-2.855 1.125-2.855 2.935v1.505a.47.47 0 01-.47.47H1.286v1.952H2.88c.26 0 .47.21.47.47v5.473z" fill="#000"/></svg>