<svg width="16" height="16" fill="none" xmlns="http://www.w3.org/2000/svg"><path d="M11.49.363H5.267A4.318 4.318 0 00.955 4.676v6.222a4.318 4.318 0 004.313 4.313h6.221c.687 0 1.343-.157 1.951-.466a4.35 4.35 0 001.488-1.243.58.58 0 10-.925-.7 3.131 3.131 0 01-2.514 1.249H5.268a3.157 3.157 0 01-3.153-3.153V4.676a3.157 3.157 0 013.153-3.153h6.221a3.157 3.157 0 013.154 3.153v5.634a.58.58 0 101.16 0V4.676A4.318 4.318 0 0011.489.363z" fill="#000"/><path d="M8.379 3.785a4.006 4.006 0 00-4.002 4.002 4.006 4.006 0 004.002 4.002 4.006 4.006 0 004.002-4.002 4.006 4.006 0 00-4.002-4.002zm0 6.844a2.845 2.845 0 01-2.842-2.842 2.845 2.845 0 012.842-2.842 2.845 2.845 0 012.842 2.842 2.845 2.845 0 01-2.842 2.842zm4.06-6.322a.58.58 0 100-1.16.58.58 0 000 1.16z" fill="#000"/></svg>