<svg width="12" height="12" fill="none" xmlns="http://www.w3.org/2000/svg"><path d="M9.775 7.34c-.42-.413-.943-.413-1.36 0-.318.316-.636.632-.95.953-.085.088-.157.106-.261.048-.206-.113-.425-.204-.623-.326-.922-.58-1.695-1.326-2.379-2.166-.34-.417-.641-.863-.853-1.366-.042-.101-.034-.168.049-.25.318-.308.628-.624.94-.939.436-.438.436-.952-.002-1.393l-.746-.748c-.257-.257-.51-.516-.77-.77-.42-.409-.943-.409-1.36.003-.321.315-.629.639-.955.949A1.549 1.549 0 00.02 2.38c-.051.665.112 1.294.342 1.906.47 1.267 1.187 2.392 2.056 3.424a12.72 12.72 0 004.212 3.296c.738.358 1.502.633 2.334.679.572.032 1.069-.113 1.467-.56.273-.304.58-.582.869-.873.428-.433.43-.957.005-1.385a440.05 440.05 0 00-1.529-1.526z" fill="#000"/></svg>