<svg width="20" height="13" fill="none" xmlns="http://www.w3.org/2000/svg"><path d="M10.231 12.61c2.695 0 1.734-1.707 1.942-2.198-.003-.366-.006-.718.007-.933.17.048.573.253 1.405 1.062 1.285 1.296 1.614 2.068 2.651 2.068h1.911c.606 0 .92-.25 1.078-.46.152-.204.302-.561.139-1.117-.427-1.338-2.912-3.65-3.067-3.893.023-.045.06-.105.08-.136h-.002c.491-.648 2.364-3.454 2.64-4.577V2.42c.15-.512.013-.844-.128-1.032-.213-.281-.551-.423-1.009-.423h-1.91c-.64 0-1.125.322-1.37.91-.41 1.044-1.565 3.19-2.43 3.95a49.72 49.72 0 01.006-2.509c.028-1.192.118-2.351-1.119-2.351H8.053c-.775 0-1.517.846-.714 1.85.702.88.252 1.371.404 3.814-.59-.633-1.64-2.342-2.382-4.526-.208-.59-.523-1.138-1.41-1.138H2.04c-.775 0-1.237.423-1.237 1.13 0 1.588 3.516 10.514 9.428 10.514zM3.951 2.13c.168 0 .185 0 .31.355.76 2.238 2.465 5.55 3.71 5.55.936 0 .936-.96.936-1.32L8.906 3.84c-.051-.951-.398-1.425-.625-1.712l2.723.003c.002.013-.015 3.18.008 3.946 0 1.09.865 1.714 2.215.347 1.424-1.608 2.41-4.011 2.449-4.109.058-.14.109-.187.292-.187h1.918l-.001.007c-.175.815-1.9 3.413-2.476 4.22a.671.671 0 00-.026.038c-.254.415-.46.873.035 1.517.045.054.163.182.333.359.531.548 2.353 2.422 2.514 3.167-.107.017-.224.005-2.029.009-.384 0-.684-.575-1.83-1.732-1.032-1.003-1.7-1.412-2.31-1.412-1.183 0-1.097.96-1.086 2.121.004 1.26-.004.861.004.94-.069.027-.267.082-.783.082-4.926 0-8.134-7.818-8.257-9.313.043-.004.63-.001 1.977-.002z" fill="#000"/></svg>