<svg width="19" height="14" fill="none" xmlns="http://www.w3.org/2000/svg"><path d="M12.166 6.356L8.1 3.816a.508.508 0 00-.778.43v5.082a.508.508 0 00.778.43l4.065-2.54a.508.508 0 000-.862zM8.34 8.411V5.163l2.598 1.624L8.34 8.411z" fill="#000"/><path d="M15.487.182H3.224c-1.4 0-2.54 1.14-2.54 2.54v8.13a2.544 2.544 0 002.54 2.541h12.263c1.401 0 2.54-1.14 2.54-2.54v-8.13a2.543 2.543 0 00-2.54-2.541zm1.525 10.67c0 .84-.684 1.525-1.525 1.525H3.224c-.84 0-1.524-.684-1.524-1.525v-8.13c0-.84.684-1.524 1.524-1.524h12.263c.84 0 1.525.684 1.525 1.524v8.13z" fill="#000"/></svg>